# xmcd
#
# Track frame offsets: 
#        150
#        69495
#        97910
#
# Disc length: 2534 seconds
#
# Revision: 3
# Processed by: cddbd v1.5.2PL0 Copyright (c) Steve Scherf et al.
# Submitted via: ExactAudioCopy v0.99pb4
#
DISCID=1c09e403
DTITLE=John Coltrane - The Other Village Vanguard Tapes [CD2]
DYEAR=1961
DGENRE=Jazz
TTITLE0=India
TTITLE1=Greensleeves
TTITLE2=Spiritual
EXTD=YEAR: 1961
EXTT0=
EXTT1=
EXTT2=
PLAYORDER=
